<svg width="96px" height="96px" enable-background="new 0 0 96 96" version="1.1" viewBox="0 0 96 96" xml:space="preserve" xmlns="http://www.w3.org/2000/svg" xmlns:xlink="http://www.w3.org/1999/xlink">
<g opacity=".999"><path d="m88 49c0 29.635-10.361 40-40 40-29.633 0-40-10.365-40-40 0-29.633 10.367-40 40-40 29.637 0 40 10.367 40 40z" enable-background="new    " opacity=".28109"/><g><path d="m88 48c0 29.635-10.361 40-40 40-29.633 0-40-10.365-40-40 0-29.633 10.367-40 40-40 29.637 0 40 10.367 40 40z" fill="#2d2d2d" opacity="1"/><path d="m48 8c-29.633 0-40 10.367-40 40 0 29.635 10.367 40 40 40 29.639 0 40-10.365 40-40 0-29.633-10.363-40-40-40zm0 79c-29.158 0-39-9.842-39-39s9.842-39 39-39c29.16 0 39 9.842 39 39s-9.84 39-39 39z" enable-background="new    " fill="#1a1a1a" opacity=".15"/><path d="m37.707 37.779c-2.4728 1.0291-7.8562 5.0699-5.4008 8.7111 1.0859 1.6102 2.9709 2.7477 4.6889 3.2863 1.599 0.50106 3.5605-0.11338 5.0224 0.5544-0.31139 0.76031-1.4123 3.5295-2.3559 3.3254-1.7621-0.37904-3.5441-0.0663-4.9272 1.2642-2.8246-3.9177-6.8492-5.5088-11.285-4.4215 3.2877-4.0526 2.491-8.2969-0.96368-12.161-2.0857-2.3328-7.1506-5.6562-10.406-4.2989 8.1336-3.3878 18.046-0.82765 25.627 3.74-1.3134 0.54665-0.5389-0.32465 0 0zm20.586 0c2.4725 1.0292 7.8562 5.0699 5.4008 8.7111-1.0859 1.6102-2.9708 2.7479-4.6892 3.2866-1.5988 0.50136-3.5603-0.11353-5.0228 0.5544 0.31348 0.76165 1.4101 3.5268 2.3559 3.3252 1.762-0.37874 3.5444-0.06675 4.9269 1.264 2.8247-3.9176 6.8498-5.509 11.284-4.4215-3.2862-4.0535-2.492-8.2962 0.96413-12.161 2.0854-2.3323 7.1509-5.6568 10.407-4.299-8.1329-3.387-18.045-0.82869-25.627 3.7402 1.3137 0.54665 0.53876-0.3248 0 0z" fill="#ec2854" stroke="#ec2854" stroke-miterlimit="10" stroke-width=".14899"/><path d="m38.934 46.879h3.4565v2.3718c1.8675-1.8917 4.559-2.837 7.1962-2.7409 2.0616-0.0066 4.3473 0.40474 5.7757 2.0254 1.3198 1.5957 1.2303 3.758 1.2174 5.7112v9.3445h-3.6989c-0.01793-3.7636 0.03691-7.5289-0.02929-11.291-0.10394-1.4265-1.0919-2.8335-2.5595-3.0858-1.601-0.35903-3.343-0.21964-4.8462 0.44634-1.4668 0.66318-2.7352 2.0323-2.7928 3.7086-0.16215 1.8599-0.0506 3.7299-0.08102 5.5949v4.6274h-3.6382c7.4e-5 -5.5707 5e-5 -11.141 1.86e-4 -16.712z" fill="#fff" stroke-width=".14899"/></g></g></svg>
